<svg width="157" height="45" viewBox="0 0 157 45" fill="none" xmlns="http://www.w3.org/2000/svg">
<rect width="157" height="45" fill="black" fill-opacity="0"/>
<rect width="40" height="45" fill="black" fill-opacity="0"/>
<path d="M20.6809 43.0435H18.8184V33.2609H20.6809V43.0435Z" fill="#4348F4"/>
<path d="M29.4519 27.0739L28.5207 28.6869L8.91406 17.3671L9.84534 15.754L29.4519 27.0739Z" fill="#4348F4"/>
<path fill-rule="evenodd" clip-rule="evenodd" d="M19.6076 34.9379C20.6248 34.9379 21.4495 34.1245 21.4495 33.1211C21.4495 32.1177 20.6248 31.3043 19.6076 31.3043C18.5903 31.3043 17.7656 32.1177 17.7656 33.1211C17.7656 34.1245 18.5903 34.9379 19.6076 34.9379Z" fill="#4348F4" stroke="#4348F4" stroke-width="0.84"/>
<path fill-rule="evenodd" clip-rule="evenodd" d="M10.3988 27.1118V17.3292V27.1118Z" fill="white"/>
<path d="M10.3988 27.1118V17.3292" stroke="#4348F4" stroke-width="1.86278"/>
<path fill-rule="evenodd" clip-rule="evenodd" d="M10.256 19.0062C11.2733 19.0062 12.0979 18.1928 12.0979 17.1894C12.0979 16.1861 11.2733 15.3727 10.256 15.3727C9.23872 15.3727 8.41406 16.1861 8.41406 17.1894C8.41406 18.1928 9.23872 19.0062 10.256 19.0062Z" fill="#4348F4" stroke="#4348F4" stroke-width="0.84"/>
<path fill-rule="evenodd" clip-rule="evenodd" d="M19.6076 24.5963C20.6248 24.5963 21.4495 23.7829 21.4495 22.7795C21.4495 21.7761 20.6248 20.9627 19.6076 20.9627C18.5903 20.9627 17.7656 21.7761 17.7656 22.7795C17.7656 23.7829 18.5903 24.5963 19.6076 24.5963Z" fill="#4348F4" stroke="#4348F4" stroke-width="0.84"/>
<rect width="4" height="12" fill="black" fill-opacity="0" transform="translate(17.7656 13.6957) scale(1 -1)"/>
<path d="M20.5383 1.99651H18.6758V11.7973H20.5383V1.99651Z" fill="#4348F4"/>
<path fill-rule="evenodd" clip-rule="evenodd" d="M19.6076 10.0062C20.6248 10.0062 21.4495 10.8321 21.4495 11.8509C21.4495 12.8697 20.6248 13.6957 19.6076 13.6957C18.5903 13.6957 17.7656 12.8697 17.7656 11.8509C17.7656 10.8321 18.5903 10.0062 19.6076 10.0062Z" fill="#4348F4" stroke="#4348F4" stroke-width="0.84"/>
<rect width="4" height="12" fill="black" fill-opacity="0" transform="translate(27.1172 29.6273) scale(1 -1)"/>
<path d="M28.9597 17.9282V27.729" stroke="#4247F3" stroke-width="1.86278"/>
<path fill-rule="evenodd" clip-rule="evenodd" d="M28.9591 25.9379C29.9764 25.9379 30.8011 26.7638 30.8011 27.7826C30.8011 28.8014 29.9764 29.6273 28.9591 29.6273C27.9418 29.6273 27.1172 28.8014 27.1172 27.7826C27.1172 26.7638 27.9418 25.9379 28.9591 25.9379Z" fill="#4348F4" stroke="#4348F4" stroke-width="0.84"/>
<rect width="4" height="12" fill="black" fill-opacity="0" transform="translate(12.8242 28.7068) scale(-1 1) rotate(-60)"/>
<path d="M1.30558 32.1547L2.23685 33.7677L10.7246 28.8673L9.79333 27.2543L1.30558 32.1547Z" fill="#4348F4"/>
<path fill-rule="evenodd" clip-rule="evenodd" d="M8.7081 28.9564C8.19947 28.0754 8.5024 26.9483 9.38471 26.4389C10.267 25.9295 11.3946 26.2307 11.9033 27.1117C12.4119 27.9926 12.109 29.1198 11.2266 29.6292C10.3443 30.1386 9.21674 29.8374 8.7081 28.9564Z" fill="#4348F4" stroke="#4348F4" stroke-width="0.84"/>
<rect width="4" height="12" fill="black" fill-opacity="0" transform="translate(26.6758 16.8522) scale(1 -1) rotate(-60)"/>
<path d="M38.1944 13.4043L37.2631 11.7913L28.7754 16.6917L29.7067 18.3047L38.1944 13.4043Z" fill="#4348F4"/>
<path fill-rule="evenodd" clip-rule="evenodd" d="M30.7919 16.6026C31.3005 17.4836 30.9976 18.6107 30.1153 19.1201C29.233 19.6295 28.1054 19.3283 27.5967 18.4473C27.0881 17.5664 27.391 16.4392 28.2734 15.9298C29.1557 15.4204 30.2833 15.7216 30.7919 16.6026Z" fill="#4348F4" stroke="#4348F4" stroke-width="0.84"/>
<path fill-rule="evenodd" clip-rule="evenodd" d="M59.123 15.441H60.8325V30.2705H59.123V15.441ZM64.3906 30.2705V21.0437H66.0538V22.1109C66.3542 21.733 67.2089 20.8214 68.8028 20.8214C69.9347 20.8214 70.9742 21.2661 71.5517 22.0887C72.0368 22.7779 72.1061 23.5338 72.1061 24.5566V30.2705H70.4429V24.601C70.4429 24.0452 70.3967 23.4004 70.004 22.9113C69.6806 22.5111 69.1724 22.2443 68.4332 22.2443C67.8557 22.2443 67.232 22.4 66.7469 22.9558C66.1 23.6895 66.0538 24.7789 66.0538 25.4459V30.2705H64.3906ZM82.7543 30.2705H81.0449V14.8184L93.0571 26.9355V15.441H94.7665V30.9375L82.7543 18.8204V30.2705ZM105.671 22.3555V21.0437H107.334V30.2705H105.671V28.981C105.117 29.6702 104.077 30.5373 102.391 30.5373C99.9653 30.5373 97.7246 28.892 97.7246 25.646C97.7246 22.4667 99.9422 20.8214 102.391 20.8214C104.239 20.8214 105.232 21.7997 105.671 22.3555ZM102.575 22.2443C100.935 22.2443 99.4336 23.4004 99.4336 25.646C99.4336 27.6248 100.589 29.1144 102.575 29.1144C104.608 29.1144 105.763 27.4914 105.763 25.6682C105.763 23.2893 104.054 22.2443 102.575 22.2443ZM113.847 22.5111H112.184V30.2705H110.52V22.5111H109.504V21.0437H110.52V17.7087H112.184V21.0437H113.847V22.5111ZM115.418 21.0437H117.081V30.2705H115.418V21.0437ZM115.072 17.5531C115.072 16.9306 115.604 16.4192 116.25 16.4192C116.897 16.4192 117.429 16.9306 117.429 17.5531C117.429 18.1756 116.897 18.687 116.25 18.687C115.604 18.687 115.072 18.1756 115.072 17.5531ZM124.705 30.5373C121.794 30.5373 119.623 28.4918 119.623 25.6905C119.623 22.8891 121.771 20.8214 124.705 20.8214C127.639 20.8214 129.787 22.8891 129.787 25.6905C129.787 28.4918 127.616 30.5373 124.705 30.5373ZM124.705 22.2443C122.949 22.2443 121.332 23.4449 121.332 25.6905C121.332 27.9583 122.995 29.1144 124.705 29.1144C126.437 29.1144 128.077 27.936 128.077 25.6905C128.077 23.4227 126.46 22.2443 124.705 22.2443ZM132.328 30.2705V21.0437H133.991V22.1109C134.292 21.733 135.146 20.8214 136.74 20.8214C137.872 20.8214 138.912 21.2661 139.489 22.0887C139.974 22.7779 140.044 23.5338 140.044 24.5566V30.2705H138.38V24.601C138.38 24.0452 138.334 23.4004 137.942 22.9113C137.618 22.5111 137.11 22.2443 136.371 22.2443C135.793 22.2443 135.169 22.4 134.684 22.9558C134.038 23.6895 133.991 24.7789 133.991 25.4459V30.2705H132.328ZM150.531 22.3555V21.0437H152.194V30.2705H150.531V28.981C149.976 29.6702 148.937 30.5373 147.25 30.5373C144.825 30.5373 142.584 28.892 142.584 25.646C142.584 22.4667 144.802 20.8214 147.25 20.8214C149.098 20.8214 150.092 21.7997 150.531 22.3555ZM147.437 22.2443C145.796 22.2443 144.295 23.4004 144.295 25.646C144.295 27.6248 145.45 29.1144 147.437 29.1144C149.469 29.1144 150.624 27.4914 150.624 25.6682C150.624 23.2893 148.915 22.2443 147.437 22.2443ZM155.336 14.0625H156.999V30.2705H155.336V14.0625Z" fill="#4348F4"/>
</svg>
