<svg viewBox="-86 0 512 512.00145" xmlns="http://www.w3.org/2000/svg"><path d="m250 386c-5.519531 0-10 4.480469-10 10s4.480469 10 10 10 10-4.480469 10-10-4.480469-10-10-10zm0 0"/><path d="m322.929688 2.929688-32.929688 32.929687-32.929688-32.929687c-3.90625-3.90625-10.234374-3.90625-14.140624 0l-32.929688 32.929687-32.929688-32.929687c-3.90625-3.90625-10.234374-3.90625-14.140624 0l-32.929688 32.929687-32.929688-32.929687c-3.90625-3.90625-10.234374-3.90625-14.140624 0l-32.929688 32.929687-32.929688-32.929687c-2.859374-2.8593755-7.160156-3.714844-10.898437-2.167969-3.734375 1.546875-6.171875 5.195312-6.171875 9.238281v492c0 4.042969 2.4375 7.691406 6.171875 9.238281 3.738281 1.550781 8.039063.691407 10.898437-2.167969l32.929688-32.925781 32.929688 32.925781c3.90625 3.90625 10.234374 3.90625 14.144531 0l32.925781-32.925781 32.929688 32.925781c3.90625 3.90625 10.238281 3.90625 14.144531 0l32.929687-32.925781 32.925782 32.925781c3.90625 3.90625 10.238281 3.90625 14.144531 0l32.929687-32.925781 32.929688 32.925781c2.863281 2.867188 7.167968 3.714844 10.894531 2.167969 3.738281-1.546875 6.175781-5.191406 6.175781-9.238281v-492c0-4.042969-2.4375-7.691406-6.175781-9.238281s-8.039063-.6914065-10.898437 2.167969zm-2.929688 474.929687-22.929688-22.929687c-3.90625-3.90625-10.234374-3.90625-14.140624 0l-32.929688 32.929687-32.929688-32.929687c-1.953124-1.953126-4.511718-2.929688-7.070312-2.929688s-5.117188.976562-7.070312 2.929688l-32.929688 32.929687-32.929688-32.929687c-3.90625-3.90625-10.234374-3.90625-14.144531 0l-32.925781 32.929687-32.929688-32.929687c-3.90625-3.90625-10.238281-3.90625-14.144531 0l-22.929687 22.929687v-443.714844l22.929687 22.925781c3.90625 3.90625 10.238281 3.90625 14.144531 0l32.929688-32.925781 32.925781 32.925781c3.90625 3.90625 10.238281 3.90625 14.144531 0l32.929688-32.925781 32.929688 32.925781c3.90625 3.90625 10.234374 3.90625 14.140624 0l32.929688-32.925781 32.929688 32.925781c3.90625 3.90625 10.234374 3.90625 14.140624 0l22.929688-22.925781zm0 0"/><path d="m250 346h-160c-5.519531 0-10 4.476562-10 10s4.480469 10 10 10h160c5.523438 0 10-4.476562 10-10s-4.476562-10-10-10zm0 0"/><path d="m210 386h-120c-5.519531 0-10 4.476562-10 10s4.480469 10 10 10h120c5.523438 0 10-4.476562 10-10s-4.476562-10-10-10zm0 0"/><path d="m120 276c0 16.542969 13.457031 30 30 30s30-13.457031 30-30-13.457031-30-30-30-30 13.457031-30 30zm30-10c5.515625 0 10 4.488281 10 10 0 5.515625-4.484375 10-10 10-5.511719 0-10-4.484375-10-10 0-5.511719 4.488281-10 10-10zm0 0"/><path d="m200 276c0 16.542969 13.457031 30 30 30s30-13.457031 30-30-13.457031-30-30-30-30 13.457031-30 30zm30-10c5.515625 0 10 4.488281 10 10 0 5.515625-4.484375 10-10 10s-10-4.484375-10-10c0-5.511719 4.484375-10 10-10zm0 0"/><path d="m270 146h-152.191406l-8.105469-32.425781c-1.113281-4.449219-5.113281-7.574219-9.703125-7.574219h-30c-5.519531 0-10 4.476562-10 10s4.480469 10 10 10h22.191406c2.21875 8.875 24.796875 99.175781 28.105469 112.425781 1.113281 4.453125 5.113281 7.574219 9.703125 7.574219h120c4.589844 0 8.589844-3.121094 9.699219-7.574219l20-80c.746093-2.988281.078125-6.152343-1.816407-8.578125-1.894531-2.425781-4.804687-3.847656-7.882812-3.847656zm-27.808594 80h-104.382812l-15-60h134.382812zm0 0"/><path d="m170 206h40c5.523438 0 10-4.476562 10-10s-4.476562-10-10-10h-40c-5.523438 0-10 4.476562-10 10s4.476562 10 10 10zm0 0"/></svg>