<svg width="40" height="45" viewBox="0 0 40 45" fill="none" xmlns="http://www.w3.org/2000/svg">
<rect width="40" height="45" fill="black" fill-opacity="0"/>
<path d="M20.6809 43.0435H18.8184V33.2609H20.6809V43.0435Z" fill="#4348F4"/>
<path d="M29.4519 27.0739L28.5207 28.6869L8.91406 17.3671L9.84534 15.754L29.4519 27.0739Z" fill="#4348F4"/>
<path fill-rule="evenodd" clip-rule="evenodd" d="M19.6076 34.9379C20.6248 34.9379 21.4495 34.1245 21.4495 33.1211C21.4495 32.1177 20.6248 31.3043 19.6076 31.3043C18.5903 31.3043 17.7656 32.1177 17.7656 33.1211C17.7656 34.1245 18.5903 34.9379 19.6076 34.9379Z" fill="#4348F4" stroke="#4348F4" stroke-width="0.84"/>
<path fill-rule="evenodd" clip-rule="evenodd" d="M10.3988 27.1118V17.3292V27.1118Z" fill="white"/>
<path d="M10.3988 27.1118V17.3292" stroke="#4348F4" stroke-width="1.86278"/>
<path fill-rule="evenodd" clip-rule="evenodd" d="M10.256 19.0062C11.2733 19.0062 12.0979 18.1928 12.0979 17.1894C12.0979 16.1861 11.2733 15.3727 10.256 15.3727C9.23872 15.3727 8.41406 16.1861 8.41406 17.1894C8.41406 18.1928 9.23872 19.0062 10.256 19.0062Z" fill="#4348F4" stroke="#4348F4" stroke-width="0.84"/>
<path fill-rule="evenodd" clip-rule="evenodd" d="M19.6076 24.5963C20.6248 24.5963 21.4495 23.7829 21.4495 22.7795C21.4495 21.7761 20.6248 20.9627 19.6076 20.9627C18.5903 20.9627 17.7656 21.7761 17.7656 22.7795C17.7656 23.7829 18.5903 24.5963 19.6076 24.5963Z" fill="#4348F4" stroke="#4348F4" stroke-width="0.84"/>
<rect width="4" height="12" fill="black" fill-opacity="0" transform="translate(17.7656 13.6957) scale(1 -1)"/>
<path d="M20.5383 1.99651H18.6758V11.7973H20.5383V1.99651Z" fill="#4348F4"/>
<path fill-rule="evenodd" clip-rule="evenodd" d="M19.6076 10.0062C20.6248 10.0062 21.4495 10.8321 21.4495 11.8509C21.4495 12.8697 20.6248 13.6957 19.6076 13.6957C18.5903 13.6957 17.7656 12.8697 17.7656 11.8509C17.7656 10.8321 18.5903 10.0062 19.6076 10.0062Z" fill="#4348F4" stroke="#4348F4" stroke-width="0.84"/>
<rect width="4" height="12" fill="black" fill-opacity="0" transform="translate(27.1172 29.6273) scale(1 -1)"/>
<path d="M28.9597 17.9282V27.729" stroke="#4247F3" stroke-width="1.86278"/>
<path fill-rule="evenodd" clip-rule="evenodd" d="M28.9591 25.9379C29.9764 25.9379 30.8011 26.7638 30.8011 27.7826C30.8011 28.8014 29.9764 29.6273 28.9591 29.6273C27.9418 29.6273 27.1172 28.8014 27.1172 27.7826C27.1172 26.7638 27.9418 25.9379 28.9591 25.9379Z" fill="#4348F4" stroke="#4348F4" stroke-width="0.84"/>
<rect width="4" height="12" fill="black" fill-opacity="0" transform="translate(12.8242 28.7068) scale(-1 1) rotate(-60)"/>
<path d="M1.30558 32.1547L2.23685 33.7677L10.7246 28.8673L9.79333 27.2543L1.30558 32.1547Z" fill="#4348F4"/>
<path fill-rule="evenodd" clip-rule="evenodd" d="M8.7081 28.9564C8.19947 28.0754 8.5024 26.9483 9.38471 26.4389C10.267 25.9295 11.3946 26.2307 11.9033 27.1117C12.4119 27.9926 12.109 29.1198 11.2266 29.6292C10.3443 30.1386 9.21674 29.8374 8.7081 28.9564Z" fill="#4348F4" stroke="#4348F4" stroke-width="0.84"/>
<rect width="4" height="12" fill="black" fill-opacity="0" transform="translate(26.6758 16.8522) scale(1 -1) rotate(-60)"/>
<path d="M38.1944 13.4043L37.2631 11.7913L28.7754 16.6917L29.7067 18.3047L38.1944 13.4043Z" fill="#4348F4"/>
<path fill-rule="evenodd" clip-rule="evenodd" d="M30.7919 16.6026C31.3005 17.4836 30.9976 18.6107 30.1153 19.1201C29.233 19.6295 28.1054 19.3283 27.5967 18.4473C27.0881 17.5664 27.391 16.4392 28.2734 15.9298C29.1557 15.4204 30.2833 15.7216 30.7919 16.6026Z" fill="#4348F4" stroke="#4348F4" stroke-width="0.84"/>
</svg>
